<svg xmlns="http://www.w3.org/2000/svg" viewBox="0 0 1039.5 1102.65"><defs><style>.cls-1{fill:#752b06;}.cls-2{fill:#542009;}</style></defs><title>dash</title><g id="Laag_2" data-name="Laag 2"><g id="Laag_6" data-name="Laag 6"><polygon class="cls-1" points="54 69.65 964 76.15 1039.5 194.15 0.5 188.15 54 69.65"/><polygon class="cls-2" points="0 187.65 0 1102.65 1039 1102.65 1039 193.49 0 187.65"/><path class="cls-2" d="M758.5,100.65c0,29.27-109,53-243.5,53s-243.5-23.73-243.5-53v-69c25,6,186.12,30,244,30,60.64,0,200.49-34.86,243-30Z"/><path class="cls-1" d="M719.5.65c-.06,8.09,0,12.86,0,16,0,18.23-93.2,34-202,34s-197-14.77-197-33c0-2.9-.41-9.43-.83-17.65C289.41,8.83,271.5,19.79,271.5,31.65c0,29.27,109,53,243.5,53s243.5-23.73,243.5-53C758.5,20.35,747.19,9.25,719.5.65Z"/></g></g></svg>