<svg xmlns="http://www.w3.org/2000/svg" viewBox="0 0 2238.94 499.2"><defs><style>.cls-1{opacity:0.69;}.cls-2{fill:#fff;}</style></defs><title>happynewyear</title><g id="Laag_2" data-name="Laag 2"><g id="tekst"><g class="cls-1"><path class="cls-2" d="M41.22,65.45Q19.65,175.65,6.66,287.3,3,318.59,0,350H30c2.88-34.36,12.28-71.38,27.87-102.68A177.84,177.84,0,0,1,69.64,227a93.28,93.28,0,0,1,13.83-16.57q1.91-1.86,3.92-3.63c.48-.42,4.36-3.55,2.89-2.45a83.64,83.64,0,0,1,10.3-6.59c3.24-1.76,5.4-3.11,9.14-3.51-1.68.18,1.2.14,1.23.15-2.37-.53-.36.12.09.15,1.11.06,1.94,1.38-.4-.27.36.25,3.08,1.93,1.29.63-1.47-1.07,1.19,1.31,1.74,1.9-2.17-2.34.33.73.9,1.79.28.52.49,1.13.81,1.62,1.09,1.68-.43-2.17-.09-.16.31,1.83,1.2,3.67,1.65,5.49.36,1.46.5,3,.91,4.46.47,1.65,0-.5-.06-.77.11.85.2,1.71.28,2.57.37,4.06.38,8.14.41,12.22a523.33,523.33,0,0,1-3.21,61.14c-1.85,16.61-7.08,36,2.46,51.54,11.78,19.19,35.42,17.95,52.86,7.88,17-9.81,31.45-25.08,43.29-40.5a183,183,0,0,0,27.41-51.14c2.6-7.41-3-16.74-10.48-18.45-8.38-1.91-15.67,2.54-18.45,10.48a123.93,123.93,0,0,1-9.1,20.56,168.42,168.42,0,0,1-13.34,20.88c-1.84,2.46-1,1.29-.59.76q-1,1.25-2,2.49-1.78,2.16-3.64,4.25-4.24,4.79-8.84,9.25c-6.08,5.89-11.23,10.44-17.32,14.28a56.19,56.19,0,0,1-5.63,3.14c1.39-.67-2.42.86-3.08,1-.34.1-3.45.81-1.74.51,1.49-.26-.87,0-1,0-4.22.32-.2.12-.34.19q-2.27-.74-1-.09,1,.54-.21-.11c-2.05-.53,1.1,1-.42-.14-.34-.26-2.39-2-.94-.94s-.61-.43-.22-.64c.19-.11.6,2.34,0,0-.25-1-.87-5.53-.7-2.65-.11-1.89-.19-3.76-.13-5.65s.2-3.82.39-5.72c.07-.71.16-1.41.24-2.12.29-2.55-.41,2.78.06-.44q1.27-8.83,2.28-17.71,1.73-15.22,2.56-30.52c1-18.25,2.31-37.46-1.28-55.52-3-15.25-12.33-31.11-28.55-34.79C98.4,160.9,78.79,174.13,65,186.59c-12.37,11.2-22.29,25.34-30.16,40C14.56,264.43,3.61,307.32,0,350c-.66,7.84,7.37,15.34,15,15,8.76-.39,14.2-6.61,15-15C36.9,277.6,46.45,206,58.88,134.42q5.3-30.56,11.27-61C71.65,65.74,68,56.86,59.67,55c-7.43-1.69-16.84,2.24-18.45,10.48Z"/></g><g class="cls-1"><path class="cls-2" d="M345.44,197c-4.76-13.8-18.52-18.52-31.86-14-11.44,3.84-20.83,12.77-30,20.24-19.58,15.9-36.93,34.89-45.09,59.21-7.14,21.29-7.65,59.72,19.72,67,14.28,3.81,27.89-5,37.39-14.79a282.66,282.66,0,0,0,23.21-27.86,292.32,292.32,0,0,0,38.9-72.36l-29.46-4a594.82,594.82,0,0,0,.92,69.12c1.57,21.65,3.53,47.49,25.3,58.84a33.65,33.65,0,0,0,33.47-.89c9.28-5.72,16.21-14.94,22.34-23.75,10.88-15.64,18.26-33.75,23.56-52,6-20.59,9.26-41.83,12.38-63H417.23c18.46,64.34,7.85,132.81,4.36,199.26-1,19.46-1.45,38.95-.55,58.42h30a415.56,415.56,0,0,1,13.92-162.66,425.6,425.6,0,0,1,14-40.61c2.23-5.52,4.3-10.27,7-16.13,1.1-2.36,2.19-4.72,3.46-7,.73-1.31,1.49-2.62,2.35-3.85-1.27,1.84,1.89-2,2.47-2.47-2.41,1.8,1.68-1.91-.38.34l1.33-.36q-2.34.21-.68.15h.66q-2.7-.54-.08,0l1.28.38q-2.24-1.06.14.14c.21.14,3.76,2.77,1.57.9a37.3,37.3,0,0,1,3.1,3.08c2.06,2.22.74,1,.39.47a33.21,33.21,0,0,1,2.95,5.16c-1.17-2.64.44,1.69.49,1.87.43,1.55.77,3.14,1,4.72-.48-2.74.2,2.24.2,2.28.06,1,.09,2.08.1,3.12,0,6.08-.51,9.06-2.75,16-3.5,10.8-11.95,23.51-19.91,32.68a201.06,201.06,0,0,1-15.65,16.1,33.21,33.21,0,0,1-2.92,2.57q1.43-1.18-.75.34-2.4,1.3-.55.29c1.24.31,2.35-.09,3.59.66,2.18,1.33,3.73,5.21,2.88,7.57,2.66-7.39-3-16.75-10.48-18.45-8.44-1.92-15.6,2.56-18.45,10.48-3.66,10.15,2.14,21,10.91,26.31s20.19,3.71,28.54-1.77c13.93-9.15,25.71-23.76,35.37-37.13,19.14-26.49,30.18-65.59,7.17-93.31-11.12-13.39-31-19.42-46.15-9-14.29,9.79-20.26,29-26.52,44.27a428.71,428.71,0,0,0-26.82,97.32A444.47,444.47,0,0,0,421,456.5c.85,7.77,6.29,15.39,15,15,7.82-.35,15.39-6.6,15-15-3.18-69,11.12-137.84,5.44-206.85a303.41,303.41,0,0,0-10.31-58.8c-1.75-6.11-7.88-11.31-14.46-11-6,.27-13.49,4.4-14.46,11-2.42,16.37-4.93,32.75-8.7,48.88-3.73,15.93-8.45,30.92-15.23,44Q390.56,289,387.39,294q-1.49,2.35-3.07,4.63c-.61.87-1.23,1.73-1.85,2.59l-1,1.28q.83-1.08-.12.11a60.34,60.34,0,0,1-8,8.61c2-1.63-2.95,2.18-1.55,1,.84-.7-.65.23-1,.31,2.39-.49-1.19.06-1.88,0,.44.06,2,.38.43-.17-2.28-.83,1.67,1-.47-.19-.65-.37-1.3-.73-1.91-1.15,1.71,1.16-.2-.2-.47-.49-.69-.74-1.44-1.4-2.06-2.21.59.77.75,1.39-.23-.65-.36-.75-.81-1.45-1.16-2.21q-.68-1.37-.1-.24l-.53-1.58c-.49-1.89-1-3.75-1.43-5.67-.22-1.1-.42-2.2-.58-3.31-.41-2.74.18,1.73-.11-1-.49-4.67-.87-9.35-1.21-14a594.82,594.82,0,0,1-.92-69.12c.33-7.45-6-13.79-13-14.73-7.78-1-13.8,3.65-16.46,10.74a266,266,0,0,1-24.26,48.32c-9.68,15.24-19.48,29-33,41.46a22.51,22.51,0,0,1-6.88,4.21c-1.61.72.34,0,1,0s.83.39,1.36.53c-2.36-.64-.86-.86-.19-.09,1.82,2.1-.49-1-.75-1.45,1.27,2.35-.61-2.24-.8-3-.26-1.06-.48-2.15-.66-3.23.11.68.15,2.31-.08-.89-.14-1.9-.21-3.81-.17-5.72q0-1.64.15-3.27c0-.63.44-3.65.14-1.71,2.79-17.76,12.28-31.3,25.09-43.86a263.79,263.79,0,0,1,22.42-19.12c2.15-1.65,4.27-3.4,6.51-4.93.66-.45,1.34-.87,2-1.27.37-.21,3.47-1.54,1.57-.83-1.7.64.3,0,.53-.09,1.2-.22,4.07-.27.59-.29,1.49,0,1.53.59-.91-.26a9.66,9.66,0,0,1-5.89-6c2.64,7.66,10.29,12.72,18.45,10.48,7.45-2,13.13-10.76,10.48-18.45Z"/></g><g class="cls-1"><path class="cls-2" d="M537.91,232a571,571,0,0,1,16.44,210.91l29.46-4a426.32,426.32,0,0,1-12.45-98.38,309.36,309.36,0,0,1,2-39.66q.13-1.11.27-2.23c-.32,2.49,0,0,.07-.46.22-1.48.45-3,.69-4.43q.85-5.15,1.93-10.25c1.33-6.27,2.94-12.48,4.88-18.59q1.33-4.19,2.86-8.3.89-2.39,1.86-4.74c.66-1.61,0,0-.1.24.39-.88.78-1.76,1.19-2.64a136,136,0,0,1,8.92-16.38q1.35-2.1,2.78-4.15c.41-.58.83-1.16,1.24-1.74,0-.06,1.43-2,.54-.76s.53-.67.58-.73l1.36-1.65q1.6-1.92,3.29-3.77,3.15-3.45,6.58-6.61,1.6-1.47,3.25-2.88l1.67-1.4c3.53-2.92-1.13.74,1.21-.92a58.56,58.56,0,0,1,7.36-4.52s3.26-1,4.3-1.14c-.35,0-1.8.41,0,.18,2.31-.31-1.69-.52.35-.11.7.14,1.37.34,2.06.52.17,0,2.19.94.83.29-1.55-.75,2.85,1.92,1.57,1-.56-.41,2.09,2,2.74,2.73-1.42-1.53,1,1.56,1.46,2.3s.71,1.27,1,1.93c-.17-.36-.72-2-.09-.09a37.54,37.54,0,0,1,1.54,5.92c-.19-1.21.15,2.42.17,3a60.44,60.44,0,0,1-.15,6.18c-.39,5.47-2.31,13.41-4.4,20q-.86,2.71-1.84,5.37c-.24.66-1.76,4.53-1.2,3.2a116.88,116.88,0,0,1-5.36,10.93q-2.93,5.34-6.35,10.38-1.6,2.35-3.29,4.63c-1,1.36-.35.47-.13.18-.67.85-1.36,1.69-2.05,2.52q-3.91,4.67-8.25,8.95c-1.35,1.33-2.72,2.64-4.13,3.9-1.9,1.69-1.89,1.86-3.47,2.59-2.23,1-.55.88.76.48s.38.35-.5-.17a20.92,20.92,0,0,1,2.24,1.33c-1.26-.94-.42-.46-.57-.37q.9,1.31-.31-.59l.48,1.24c-.77-.38.26-2.18-.23-.49-.12.43-.68,4,.17,1,2.12-7.55-2.61-16.66-10.48-18.45s-16.18,2.39-18.45,10.48a28.46,28.46,0,0,0,8.16,28.43c9,8.19,20.91,9.23,31.71,4.12,8.05-3.81,15-11,20.88-17.52a150,150,0,0,0,16.87-22.54c17.22-28.33,33.77-78.82,2.76-103.9-33.51-27.1-71.26,12.5-87.55,40.59s-23,60.81-25.06,92.9c-2.84,43.79,2.47,88.62,12.89,131.14,1.78,7.26,9.33,11.7,16.46,10.74,7.87-1.06,12.2-7.19,13-14.73A596.28,596.28,0,0,0,566.84,224a15,15,0,0,0-28.93,8Z"/></g><g class="cls-1"><path class="cls-2" d="M666.21,209.91c2.2,17.17,6,33.84,12.46,49.93,6.25,15.45,13.53,30.69,27.38,40.73,14.84,10.75,33,8,46.05-4.07,11.6-10.74,19.4-25.3,25.38-39.72,6.45-15.57,10.33-32,14-48.38H762.6c1.24,5.73,2.36,11.49,3.29,17.29,1,6.23,1.32,8.66,2,15.11a328.33,328.33,0,0,1,1.65,35.13,301.53,301.53,0,0,1-7.65,67.48,308.27,308.27,0,0,1-38.78,96.18c-1.41,2.3-2.83,4.59-4.33,6.83-.69,1-1.38,2.09-2.15,3.06,1.43-1.81-.62.6-1,1a26.21,26.21,0,0,1-2.63,2.56c1.92-1.55-.5.2-1.07.5l-.62.34q2.12-.91-.41-.1,2.23-.29-.62-.2,1.71.19.13-.18c-2.34-.72,2.23,1.67-1.55-.69.2.13-4-2.69-2.36-1.46a54.77,54.77,0,0,1-7.05-7A82.72,82.72,0,0,1,689,429.9c-6.79-11.36-10.46-21.58-13-35.16-1.46-8-11.13-12.49-18.45-10.48-8.38,2.3-11.95,10.46-10.48,18.45,4.78,26,18.54,54,39.45,70.82,13.42,10.82,30.62,13.9,45,2.82,10.57-8.15,17.36-21,23.79-32.45A350.73,350.73,0,0,0,799.08,291a344.14,344.14,0,0,0-7.55-90.58c-3.12-14.38-25.71-14.23-28.93,0-3.48,15.37-7.19,30.65-12.83,45.39q-1,2.55-.34.88-.64,1.47-1.31,2.93-1.34,2.91-2.83,5.74a105.63,105.63,0,0,1-5.71,9.59c-.35.53-3.36,4.62-2.39,3.4-1,1.26-2.05,2.49-3.13,3.68a42.36,42.36,0,0,1-4.28,4.25c2.38-2-3.18,1.72-1.41.93q1.37-.47-1,.29-2.7.59-.09.06-2.68-.12,0,.2a19.6,19.6,0,0,1-2.55-.69c2.81.89-.76-.55-1.28-.83q-2.12-1.48-.38-.13-1.11-.92-2.16-1.93c-4.69-4.51-7.37-9.39-10.82-16.7a155.48,155.48,0,0,1-8.55-22.92,180.22,180.22,0,0,1-5.38-24.67c-1-7.75-6.19-15.39-15-15-7.27.33-16.07,6.66-15,15Z"/></g><g class="cls-1"><path class="cls-2" d="M966.92,171.89c7.7,49.35,3.26,101-12,149.11h28.93c-1.77-6.08-3.31-12.21-4.54-18.42-.6-3-1.11-6.09-1.57-9.16.43,2.8-.2-1.67-.28-2.4q-.31-2.84-.52-5.69a140.3,140.3,0,0,1-.17-19.06q.15-2.42.4-4.84.11-1,.23-2.06c0,.24-.35,2.35-.06.59.51-3.12,1.11-6.22,1.89-9.29a84.43,84.43,0,0,1,2.56-8.26c.3-.82.62-1.65,1-2.46-.09.22-1,2.11-.2.57s1.51-3.14,2.36-4.67a70.2,70.2,0,0,1,4.57-7.16c-1.47,2,.34-.37.94-1.07q1.75-2,3.67-3.86c1.13-1.1,2.31-2.15,3.53-3.16s.09-.07-.15.1q1-.7,2-1.34c.69-.43,1.4-.85,2.13-1.22-1.57.79.66-.26.89-.34,0,0,2.53-.59,1.07-.33s2.06-.57.58.09c-1.26.57-2.45-1.73-.58.5-.08-.1,1.56,1.94.84,1s.77,1.29.7,1.17c1,1.67,2,3.29,2.87,5s1.68,3.56,1.81,3.91c10.33,27.43,7.38,58.3,23.71,83.75,8.21,12.79,20.52,23.13,35.56,26.64,15.83,3.69,31.6.23,46-6.66,27.84-13.3,48.63-40.39,62.83-67,7.72-14.47,15.5-30.95,17.7-47.34,2.38-17.68-6.57-32.72-23.18-39-12.16-4.58-27.54-2.85-38.28,4.5-13.46,9.22-21.24,24.29-24.54,40-6.63,31.47-2.85,68.72,20.91,92.43a66.6,66.6,0,0,0,42.67,19.71c15.91,1,30.91-5.87,42.77-16,24.91-21.29,30.45-54.22,36.52-84.57a224.35,224.35,0,0,1,6-24.07l-28.93-8a247.83,247.83,0,0,0-4.74,50.27,223.36,223.36,0,0,0,1.58,23.69c.88,7.29,1.52,14.83,4.22,21.71,5.66,14.43,18.13,28.55,35.35,24,16.48-4.33,22.83-23.73,28.64-37.74a242,242,0,0,0,14.58-49.95l-28.93-8c-3.84,25.09-2.34,51.43,7.64,75,4.32,10.21,10.62,19.65,20,25.84a36.29,36.29,0,0,0,32.76,3.5c21.88-8.64,31.64-32.11,38.31-53a235.57,235.57,0,0,0,11-74.24c-.28-22.42-6.3-51.84-32.05-57.62-7.64-1.72-16.59,2.32-18.45,10.48-1.73,7.61,2.29,16.61,10.48,18.45.74.17,1.64.51,2.4.62-2.22-.31-1.35-.8-.3-.08.65.44,1.33.8,2,1.26-.43-.31-2.41-1.86-.37,0,.48.43,1.83,2.15,0-.3.49.65.94,1.35,1.36,2,.56.91,2.41,4.8,1.3,2.09a51.85,51.85,0,0,1,2.87,10.18c.16.87.31,1.75.44,2.63-.09-.61-.27-2.95-.07-.05.15,2.22.29,4.42.36,6.64a201.25,201.25,0,0,1-6.31,57.51q-1.72,6.73-3.87,13.35-1.14,3.53-2.41,7-.47,1.31-1,2.61s-2.15,5.42-.89,2.43a72.21,72.21,0,0,1-4.92,9.51q-.75,1.23-1.55,2.42c-.2.29-1.94,2.69-.92,1.36s-.81.93-1.05,1.2c-.76.86-1.55,1.7-2.38,2.49-.65.62-1.32,1.23-2,1.8.61-.49,2.1-1.2-.16,0-.75.39-1.5.87-2.24,1.28.61-.34,2.67-.68,0-.06-.82.2-1.65.42-2.47.63,1.32-.34,1.25.33.78-.18-.11-.12-3.4-.11-1.34.1s-1.54-.44-1.95-.55c2.32.6.71.44,0,0s-1.51-.88-2.25-1.36c2.34,1.5-1.41-1.47-2-2-.32-.31-1.86-2.14-.29-.15-.57-.73-1.1-1.53-1.6-2.3a53.05,53.05,0,0,1-3.14-5.56q-.47-1-.91-1.93c1.2,2.63-.51-1.45-.58-1.64-.88-2.46-1.63-5-2.33-7.48a120.2,120.2,0,0,1-3.22-15.15,123.06,123.06,0,0,1,.19-30.74c1.18-7.72-1.95-16.51-10.48-18.45-7.32-1.67-17,2.22-18.45,10.48A240.62,240.62,0,0,1,1267,274.17a145.13,145.13,0,0,1-8.76,18.67c-.29.49-2.7,3.74-1.06,1.74-1.91,2.31-.26.11.78-.3a5.79,5.79,0,0,1,3.53.08q-2.37-.71.54.32l-1-.6q2.24,1.76.36,0-1.43-1.65-.42-.43t-.31-.61c-.22-.46-2.25-4.39-1.67-3s-.89-2.82-1-3.33c-.34-1.26-.6-2.53-.83-3.82a171.7,171.7,0,0,1-2.19-22.46,209.72,209.72,0,0,1,3.48-48.94c1.48-7.68-2.16-16.56-10.48-18.45a15.33,15.33,0,0,0-18.45,10.48c-4.66,14.65-6.92,29.85-10.07,44.86a177.11,177.11,0,0,1-6.19,23c-.49,1.38-1,2.76-1.56,4.11.86-2.06-.62,1.24-.9,1.82a87.3,87.3,0,0,1-4.7,8.45q-1.19,1.89-2.48,3.7c-.43.6-.86,1.21-1.31,1.79.2-.26,1.15-1.43,0-.15a74.58,74.58,0,0,1-6.56,6.83c-.51.46-3.25,2.61-1.42,1.27-1.15.84-2.33,1.63-3.54,2.38s-2.46,1.38-3.7,2.06c-.1.06-2.21,1-.78.41s-1.24.42-1.5.51q-2,.67-4.1,1.14-1,.24-2.1.42c.31-.06,2.2-.2.38-.08-1.48.1-2.95.16-4.43.12-.89,0-5-.66-2.57-.15a49.68,49.68,0,0,1-8.45-2.43c2.06.83-1.21-.66-1.79-1-1.53-.82-3-1.72-4.47-2.68-.62-.41-1.24-.84-1.84-1.27.27.19,1.4,1.14.08,0q-1.73-1.44-3.35-3t-3.11-3.26c-.2-.23-2.16-2.61-1.21-1.38.71.91-.89-1.29-1-1.51a49.11,49.11,0,0,1-7.58-16.78,65.55,65.55,0,0,1-2.57-18.82c-.07-3.44,0-6.88.25-10.31q.17-2.57.44-5.12c.08-.78.16-1.56.26-2.34-.22,1.65,0,.42.12-.5.54-3,1.15-6,2-8.92.41-1.46.92-2.89,1.36-4.34,0,0,.85-2.35.33-1-.45,1.14.64-1.39.75-1.63.65-1.33,1.35-2.63,2.12-3.9.4-.65,2.24-3.29,1.76-2.69s1.7-1.78,2.24-2.3,1.07-1,1.63-1.49c-1,.83-.5.3.26-.14,1-.58,2-1.14,3.06-1.68-2.28,1.19-.55.29.82-.08.75-.2,1.56-.29,2.3-.52-.23.07-2.72.07-1.07.15,1.34.06,2.77-.06,4.11-.08,2.83,0-2.08-.66.62.06,1.07.29,2.22.73,3.31.92-2.21-.38-1.05-.56.49.33.46.26.92.66,1.4.88,1.87.86-2.31-1.1-.48-.3.45.19.77.86,1.14,1.16,0,0-1.81-2.18-.7-.87.36.42.5,1,.84,1.42-.23-.28-.61-2.51-.42-1,.33,2.6.72,3.78.13,6.27a132.3,132.3,0,0,1-6.91,20.46c-1.79,4.31-5.52,11.9-8.52,17.29a195.12,195.12,0,0,1-11.43,18.14,137.7,137.7,0,0,1-12.42,15.25q-3.17,3.37-6.6,6.48-1.74,1.57-3.54,3.07c-.6.5-1.2,1-1.82,1.48,1.22-.95-.29.2-.7.49-2.55,1.79-5.12,3.53-7.81,5.1-2.26,1.32-6.7,3.57-7.76,4,.66-.27-2.37.85-3.1,1.09q-2.09.69-4.23,1.23c-1.41.35-2.82.65-4.25.9-1.77.31.16,0,.44-.05-.95.08-1.89.16-2.84.19-1.42.05-2.83,0-4.24,0-2.82-.07,1.15.43-1.62-.17-1.4-.3-2.78-.62-4.15-1-.69-.21-1.37-.45-2.05-.7-2.24-.83,1.69.9-.46-.25-1.27-.68-2.52-1.35-3.73-2.12q-.89-.57-1.75-1.18c.24.17,1.57,1.31.3.19a46,46,0,0,1-6.26-6.5c1.44,1.87-.53-.93-.92-1.54-.9-1.4-1.73-2.83-2.51-4.29-.68-1.27-1.3-2.56-1.92-3.86-.75-1.55-.06,0,.06.26-.38-.89-.72-1.81-1.06-2.72a118.84,118.84,0,0,1-4.93-17.59c-2.77-13.48-4-27.27-7.75-40.55-4.1-14.48-11.64-32.7-26.41-39-16.19-7-32.85,2.85-43.93,14.5a86.12,86.12,0,0,0-19,32.49c-8,24-6.31,50.62-1.32,75,1.17,5.74,2.62,11.41,4.25,17,4.23,14.49,24.48,14,28.93,0,16.94-53.35,20.63-109.84,12-165.06-1.25-8-11.28-12.45-18.45-10.48-8.55,2.35-11.73,10.42-10.48,18.45Z"/></g><g class="cls-1"><path class="cls-2" d="M1535.41,193.35c8.17-3.26,13.84-10.37,11.4-19.62a18.44,18.44,0,0,0-12.71-12.64,16.21,16.21,0,0,0-19.59,11.43c-1.55,5.43-1.62,12.12-1.71,17.75a119,119,0,0,0,15.75,60.49c10.49,18.25,28.46,37.9,51.39,37.11,25.05-.86,37-25.42,45.42-45.53a191,191,0,0,0,14.53-73.4l-29.46,4a292,292,0,0,1,9,60.82q.76,16,0,32-.36,8-1.1,16-.33,3.59-.73,7.17c-.15,1.33-.31,2.65-.47,4a15.72,15.72,0,0,1-.31,2.36A354.72,354.72,0,0,1,1602,357.47a307.52,307.52,0,0,1-25.15,56.26q-7.89,13.92-17.09,27c-6,8.58-10.25,14.86-18.54,22.07a20.15,20.15,0,0,1-4,2.93c-1.3.83-2.65,1.57-4,2.28-.43.22-2.63.91-.52.22a33.68,33.68,0,0,1-3.47,1c-2.34.5,3.18.23-.88,0-3.07-.19-.73-.05-.16.08a19.69,19.69,0,0,1-2.74-.81q1.63.61.26-.1c-2-1.29,1.91,2.33-1-.75-.66-.7-1.38-1.38-2-2.15,1.73,2.25-.91-1.74-1-1.83-.49-.86-.92-1.74-1.36-2.62-2.06-4.08.39,1.28-.55-1.31-.43-1.2-.85-2.4-1.21-3.62q-.43-1.45-.79-2.93t-.64-3q-.4-2.48-.2-1c.31,2-.24-2.82-.22-2.51q-.1-1.51-.14-3c-.06-2.54.08-5,.24-7.58.19-3,.08-1.27,0-.56.19-1.52.49-3,.8-4.54q.78-3.79,1.9-7.5t2.57-7.36c-.82,2.05.45-1,.66-1.46q.83-1.78,1.72-3.53a118,118,0,0,1,8.2-13.39,48.47,48.47,0,0,1,3.45-4.29c1.84-2.12,3.75-4.18,5.73-6.18a161.29,161.29,0,0,1,12.42-11.3c7.35-6,16.81-12.35,26-18.11,19.79-12.48,39.92-24.32,59.22-37.59q30.49-21,59.09-44.55c18.28-15.05,36.48-30.72,53-47.74,15-15.52,29.46-37.7,24.73-60.32-5.06-24.2-31.4-35-53.69-28.64-22.88,6.49-36.82,28-46.44,48.27-10.57,22.31-18,47.31-15.08,72.23,2.54,21.87,11.84,43.92,29.12,58.24,18.65,15.45,41.95,20.26,65.52,15.76,22.72-4.34,43.23-17,61.22-31,17.09-13.29,32.57-28.85,46.89-45.06,14.72-16.66,28.34-34.75,38.09-54.8a176.89,176.89,0,0,0,12.23-32.51c2.74-10.47-7.32-22.3-18.45-18.45-44,15.25-77.85,55.77-84.61,102-3.4,23.31-2.84,54,18.21,69.25,11.22,8.14,26.67,7.61,38-.08,10.71-7.28,17.6-18.34,23.36-29.67A584.21,584.21,0,0,0,1927.84,202l-29.46-4a237.79,237.79,0,0,0,55.52,126.75c6.33,7.39,19.05,4.84,23.56-3a487.38,487.38,0,0,0,55.69-150.08h-28.93a406.44,406.44,0,0,1,11.26,127.09h30a234.86,234.86,0,0,1,4-56.91,248.61,248.61,0,0,1,7.52-28.69c3-9.22,5.27-15.65,9.72-23.55a43.1,43.1,0,0,1,6.24-9,46.12,46.12,0,0,1,4.67-4.43c-1.81,1.48,2.5-1.63,3-1.92a48.68,48.68,0,0,1,5.13-2.7c-2.5,1.12,2.66-.88,3.18-1,1.86-.57,3.75-1,5.65-1.45.55-.12,6.18-.9,3.32-.61a117.41,117.41,0,0,1,24.48.3l3.11.36q-2.1-.29.66.1c2.06.32,4.11.64,6.16,1,4,.7,8.06,1.5,12.08,2.33,7.66,1.58,16.57-2.23,18.45-10.48,1.71-7.5-2.26-16.75-10.48-18.45-28.62-5.91-62.75-11.36-88.74,5.89-14.78,9.81-23.47,24.41-30,40.51a242.59,242.59,0,0,0-13.91,48.38,270.39,270.39,0,0,0-4.2,60.33c.36,7.83,6.64,15.37,15,15,8.58-.38,14.44-6.6,15-15a435.93,435.93,0,0,0-12.34-135.07c-3.47-13.79-26.1-14.8-28.93,0a459.09,459.09,0,0,1-52.67,142.91l23.56-3c-24.88-29.06-42.21-68.42-46.73-105.54-.91-7.5-5-13.66-13-14.73A15.06,15.06,0,0,0,1898.91,194a532.08,532.08,0,0,1-25.82,67.25A282.91,282.91,0,0,1,1857.56,291c-2.4,3.87.94-1-.73,1.08-.76.94-1.55,1.85-2.38,2.72-.65.69-1.36,1.31-2,2-2.62,2.71,1.94-.73-1.29,1-.78.42-1.5.9-2.3,1.3,2.78-1.37.27-.34,0-.13l-1.25.29q2.78-.33.1-.21l1.29.25a17.47,17.47,0,0,1-2.5-.65c3.32,1,.39-.06.18-.08l-1-.68q1.83,1.43.63.35c-.62-.42-2.35-2.72-.58-.35a25.69,25.69,0,0,1-1.44-2.2,33.11,33.11,0,0,1-1.85-3.58c.29.65.81,2.45,0-.24a73.31,73.31,0,0,1-1.9-7.3c-.14-.75-.49-3.72-.16-.73-.1-.94-.2-1.88-.28-2.82q-.3-3.52-.35-7.06a103.93,103.93,0,0,1,.76-14.08c-.35,2.9.05-.18.17-.9q.29-1.74.64-3.47.7-3.46,1.61-6.87a115.72,115.72,0,0,1,4.5-13.4c-.94,2.33,0,.09.16-.32.5-1.07,1-2.15,1.5-3.21q1.39-2.87,2.93-5.66a119.4,119.4,0,0,1,8-12.55c.37-.51,2.26-2.92.66-.91q1.33-1.66,2.7-3.28,2.53-3,5.25-5.74t5.62-5.37q1.05-.94,2.13-1.86t2.18-1.8l.71-.56c-1.62,1.23,2.11-1.5,1.89-1.34q1.73-1.22,3.5-2.37,3.26-2.11,6.66-4c2.27-1.25,4.6-2.37,6.94-3.47,2.67-1.25.91-.4.32-.16,1.75-.71,3.53-1.35,5.32-2l-18.45-18.45a153.6,153.6,0,0,1-4.64,14.77,108.75,108.75,0,0,1-6,13.48,204.27,204.27,0,0,1-16.23,26.37c-11.07,15.4-26.66,31.88-41.5,46.2-15.42,14.87-30.59,26.64-50.4,35.88-2.79,1.3-1.47.65-.83.38-1.22.51-2.46,1-3.7,1.42-2.2.8-4.43,1.53-6.69,2.17-2.46.7-5,1.3-7.47,1.78-1,.19-2,.37-3,.51,2.8-.39-1.43.08-2,.12a66.08,66.08,0,0,1-7.44.08c-1,0-2-.13-3-.21-4.52-.34,2.51.78-1.9-.32-5.19-1.29-9.08-2.39-12.28-4.07a56.18,56.18,0,0,1-5.69-3.42c-.49-.34-2.93-2.27-1.07-.74-.75-.62-1.49-1.26-2.21-1.92a49.61,49.61,0,0,1-8.1-9.27,71.66,71.66,0,0,1-3.76-6.4c-.46-.88-.88-1.78-1.32-2.67-2.12-4.2.46,1.36-.55-1.22a97.74,97.74,0,0,1-4.26-15.11c-.09-.42-.46-2.94-.13-.44-.13-1-.22-2-.31-3-.24-2.85-.33-5.72-.3-8.59a76.33,76.33,0,0,1,1.56-15.37,132.37,132.37,0,0,1,10.42-31c2.28-4.76,4.73-9.47,7.46-14,1.21-2,2.48-4,3.83-5.93.28-.4,2.25-3,.92-1.35,1-1.21,2-2.39,3-3.53a45.38,45.38,0,0,1,5.6-5.28c-1.49,1.13,2.56-1.57,3.33-2,.39-.21,4.32-1.81,1.34-.75.86-.3,1.72-.6,2.6-.84s1.77-.42,2.66-.65q2.66-.47.07-.05,1-.09,2-.11c1.13,0,2.25,0,3.38.07-.63,0-2.86-.67,0,0,1.08.26,2.13.54,3.19.86,2.14.66-2.57-1.83.62.3.73.49,1.5.86,2.22,1.38-2.32-1.67,0,.06.45.69,1.45,2-1.39-3,.63.83.39.74,1.59,4.14.74,1.21.24.83.45,1.67.68,2.5-.81-2.88,0-.56,0,.53s-.07,2.21-.08,3.3c0-2.64.16-.77,0,0a66,66,0,0,1-2,6.79c.8-2.18,0,.11-.22.49-.66,1.36-1.34,2.71-2.07,4-5.09,9.16-10.32,14.58-18.45,22.42s-16.58,15.64-25.12,23.2q-25.84,22.86-52.92,42.9-28.16,20.77-58,39c-19.39,11.88-39,23.42-56.48,38.07-33.63,28.18-57.37,75.05-38.27,118.25,4.84,11,13.46,20.27,25.2,23.72s24.33-.13,34.2-6.62c18.23-12,31-31.81,42.33-50,45.54-72.85,63-161.75,49.94-246.48q-2.32-15-6-29.81c-4.11-16.5-29.46-12.88-29.46,4,0,29-7.34,57.82-22.75,82.79a33.21,33.21,0,0,1-4.08,4.64c1.11-.85-3,1.64-1.7,1.06s-1,.26-1,.28c-1.1.28-2,.24-.4.16a21.48,21.48,0,0,1-2.92,0c.35,0,2.07.38.37-.05-.79-.2-3.73-1.18-3.17-.94s-2.29-1.3-3-1.73-3.82-2.79-2.71-1.85c-9.63-8.16-16.76-20.64-20.6-31.8a104.31,104.31,0,0,1-3.11-11c-.42-1.85-.77-3.72-1.11-5.59-.55-3.09-.26-1.55-.16-.84-.14-1.07-.24-2.16-.34-3.24a102,102,0,0,1-.37-11.37q.07-3.25.37-6.49c.07-.8.12-1.63.25-2.43.42-2.51-.51,1.38.24-.68l-6.89,9,.4-.3-7.57,2-12.27-12.35,2-7.57-.29.41,9-6.89-.63.25c-7.52,3-12.79,10-10.48,18.45,2,7.15,10.88,13.5,18.45,10.48Z"/></g><g class="cls-1"><path class="cls-2" d="M2208.88,15a936.64,936.64,0,0,1-44.19,198.4q-9.33,27.46-20.33,54.31c-3,7.28,3.23,16.8,10.48,18.45,8.72,2,15.26-2.68,18.45-10.48a948.36,948.36,0,0,0,57.23-200.18q5.11-30.11,8.37-60.51c.85-7.83-7.51-15.34-15-15-8.85.4-14.09,6.61-15,15Z"/></g><g class="cls-1"><path class="cls-2" d="M2144,341.41a10.44,10.44,0,0,1,1.25,1.22l-2.35-3a10.44,10.44,0,0,1,1.17,2l-1.51-3.58a11.52,11.52,0,0,1,.59,2.25l-.54-4a11.52,11.52,0,0,1,0,2.33l.54-4a10.44,10.44,0,0,1-.65,2.22l1.51-3.58a10.44,10.44,0,0,1-.91,1.49c-2.16,3-2.44,8.18-1.51,11.56a15.3,15.3,0,0,0,6.89,9c3.48,1.84,7.7,2.76,11.56,1.51a17.25,17.25,0,0,0,9-6.89c6.25-8.57,4.36-22.94-3.78-29.68-3.14-2.6-6.38-4.39-10.61-4.39a15.26,15.26,0,0,0-10.61,4.39c-5.07,5.53-6.45,15.87,0,21.21Z"/></g></g></g></svg>